<svg width="63" height="63" viewBox="0 0 63 63" fill="none" xmlns="http://www.w3.org/2000/svg">
<path d="M20.9933 42.4219C20.7877 42.3533 20.5657 42.3511 20.3587 42.4156C20.1517 42.4802 19.9703 42.6082 19.8401 42.7815L13.64 51.0483C13.5249 51.2018 13.4548 51.3843 13.4375 51.5755C13.4203 51.7666 13.4566 51.9588 13.5424 52.1304C13.6283 52.302 13.7602 52.4464 13.9234 52.5473C14.0867 52.6482 14.2748 52.7016 14.4667 52.7016H17.3797L16.553 57.6989C16.5157 57.9255 16.5548 58.158 16.6643 58.3599C16.7738 58.5617 16.9475 58.7213 17.1578 58.8135C17.3681 58.9057 17.6031 58.9252 17.8257 58.8689C18.0484 58.8127 18.2459 58.6839 18.3872 58.5028L25.6206 49.2027C25.7397 49.0497 25.8133 48.8663 25.833 48.6734C25.8527 48.4806 25.8178 48.286 25.7323 48.1121C25.6467 47.9381 25.5139 47.7918 25.3491 47.6897C25.1842 47.5876 24.994 47.534 24.8002 47.5349H21.7001V43.4015C21.7 43.1847 21.6316 42.9735 21.5048 42.7977C21.3779 42.6218 21.199 42.4904 20.9933 42.4219V42.4219ZM22.687 49.6016L19.2573 54.0119L19.619 51.8419C19.6442 51.6936 19.6368 51.5416 19.5973 51.3965C19.5577 51.2514 19.4869 51.1166 19.3899 51.0017C19.2929 50.8868 19.1719 50.7944 19.0355 50.7311C18.8991 50.6677 18.7505 50.6349 18.6001 50.6349H16.5334L19.6334 46.5015V48.5682C19.6334 48.8423 19.7423 49.1051 19.9361 49.2989C20.1299 49.4927 20.3927 49.6016 20.6668 49.6016H22.687Z" fill="#F6921E"/>
<path d="M35.1337 27.9012C34.8596 27.9012 34.5968 28.0101 34.403 28.2039C34.2092 28.3977 34.1003 28.6605 34.1003 28.9345C34.1003 29.2086 34.2092 29.4714 34.403 29.6652C34.5968 29.859 34.8596 29.9679 35.1337 29.9679H38.2337V32.0346H36.167C35.893 32.0346 35.6301 32.1435 35.4363 32.3372C35.2426 32.531 35.1337 32.7939 35.1337 33.0679C35.1337 33.342 35.2426 33.6048 35.4363 33.7986C35.6301 33.9924 35.893 34.1013 36.167 34.1013H48.5672C48.8413 34.1013 49.1041 33.9924 49.2979 33.7986C49.4917 33.6048 49.6006 33.342 49.6006 33.0679C49.6006 32.7939 49.4917 32.531 49.2979 32.3372C49.1041 32.1435 48.8413 32.0346 48.5672 32.0346H46.5005V29.9679H49.6006C49.8746 29.9679 50.1374 29.859 50.3312 29.6652C50.525 29.4714 50.6339 29.2086 50.6339 28.9345V19.6344C50.6339 19.3604 50.525 19.0975 50.3312 18.9037C50.1374 18.7099 49.8746 18.6011 49.6006 18.6011H35.1337C34.8596 18.6011 34.5968 18.7099 34.403 18.9037C34.2092 19.0975 34.1003 19.3604 34.1003 19.6344V24.8012C34.1003 25.0752 34.2092 25.3381 34.403 25.5318C34.5968 25.7256 34.8596 25.8345 35.1337 25.8345C35.4077 25.8345 35.6706 25.7256 35.8644 25.5318C36.0582 25.3381 36.167 25.0752 36.167 24.8012V20.6678H39.8726L47.1061 27.9012H35.1337ZM44.4338 32.0346H40.3004V29.9679H44.4338V32.0346ZM48.5672 20.6678V26.44L42.7949 20.6678H48.5672Z" fill="#F6921E"/>
<path d="M44.4339 50.6349V45.4682C44.4339 45.1941 44.325 44.9313 44.1312 44.7375C43.9374 44.5437 43.6746 44.4348 43.4005 44.4348C43.1265 44.4348 42.8636 44.5437 42.6698 44.7375C42.4761 44.9313 42.3672 45.1941 42.3672 45.4682V50.6349C42.3672 50.909 42.4761 51.1718 42.6698 51.3656C42.8636 51.5594 43.1265 51.6682 43.4005 51.6682C43.6746 51.6682 43.9374 51.5594 44.1312 51.3656C44.325 51.1718 44.4339 50.909 44.4339 50.6349Z" fill="#F6921E"/>
<path d="M39.8871 46.735C39.6679 46.5706 39.3923 46.5 39.121 46.5387C38.8497 46.5775 38.6049 46.7224 38.4405 46.9417C37.6368 48.0053 37.2015 49.3018 37.2004 50.6348C37.2004 52.2792 37.8537 53.8562 39.0164 55.019C40.1791 56.1817 41.7562 56.8349 43.4005 56.8349C45.0449 56.8349 46.6219 56.1817 47.7846 55.019C48.9474 53.8562 49.6006 52.2792 49.6006 50.6348C49.5984 49.3035 49.1631 48.0091 48.3606 46.9468C48.1904 46.747 47.9505 46.6194 47.6897 46.59C47.4289 46.5606 47.1666 46.6315 46.9562 46.7884C46.7458 46.9453 46.6029 47.1764 46.5567 47.4348C46.5105 47.6932 46.5643 47.9595 46.7072 48.1796C47.2417 48.8868 47.5318 49.7485 47.5339 50.6348C47.5339 51.7311 47.0984 52.7824 46.3233 53.5576C45.5481 54.3328 44.4968 54.7682 43.4005 54.7682C42.3043 54.7682 41.2529 54.3328 40.4778 53.5576C39.7026 52.7824 39.2671 51.7311 39.2671 50.6348C39.2692 49.7485 39.5594 48.8868 40.0938 48.1796C40.2576 47.9605 40.3278 47.6854 40.2891 47.4146C40.2503 47.1438 40.1058 46.8994 39.8871 46.735V46.735Z" fill="#F6921E"/>
<path d="M15.5002 26.8678C14.7615 26.8651 14.0463 27.1272 13.4841 27.6064C12.9219 28.0856 12.55 28.7504 12.4357 29.4802C12.3214 30.2101 12.4722 30.9567 12.861 31.5849C13.2497 32.2131 13.8506 32.6812 14.5547 32.9046C14.7567 34.1056 15.3777 35.1962 16.3075 35.9827C17.2373 36.7692 18.4158 37.2008 19.6336 37.2008C20.8515 37.2008 22.0299 36.7692 22.9598 35.9827C23.8896 35.1962 24.5106 34.1056 24.7125 32.9046C25.3298 32.71 25.8702 32.3259 26.2568 31.8068C26.6435 31.2878 26.8568 30.6601 26.8665 30.0129C26.8762 29.3658 26.6819 28.732 26.311 28.2015C25.9401 27.6711 25.4115 27.2709 24.8004 27.0579V26.7479C25.7042 25.8258 26.3448 24.6786 26.6556 23.4254C26.9664 22.1721 26.936 20.8585 26.5677 19.621C26.1994 18.3834 25.5065 17.267 24.561 16.3877C23.6155 15.5083 22.4519 14.8981 21.1909 14.6203C19.9299 14.3425 18.6176 14.4073 17.3901 14.808C16.1627 15.2087 15.0648 15.9306 14.2106 16.8989C13.3564 17.8671 12.7769 19.0464 12.5323 20.3142C12.2877 21.582 12.387 22.8922 12.8197 24.1087C12.9115 24.367 13.1022 24.5783 13.3498 24.696C13.5973 24.8137 13.8815 24.8283 14.1398 24.7365C14.3981 24.6447 14.6094 24.454 14.7271 24.2064C14.8448 23.9589 14.8594 23.6747 14.7676 23.4164C14.4536 22.5337 14.3856 21.5823 14.5707 20.6639C14.7558 19.7455 15.1872 18.8947 15.8186 18.2026C16.45 17.5105 17.2577 17.0031 18.1553 16.7347C19.0529 16.4663 20.0066 16.447 20.9143 16.6789C21.822 16.9107 22.6496 17.385 23.3085 18.051C23.9674 18.717 24.4328 19.5496 24.6549 20.4598C24.8771 21.3699 24.8476 22.3233 24.5696 23.218C24.2916 24.1127 23.7756 24.9149 23.0767 25.5389C22.9688 25.6358 22.8825 25.7543 22.8234 25.8868C22.7643 26.0192 22.7337 26.1626 22.7337 26.3077V26.8678H20.667V24.1955L22.4309 22.4316C22.6191 22.2367 22.7233 21.9757 22.7209 21.7047C22.7186 21.4338 22.6099 21.1746 22.4183 20.983C22.2267 20.7914 21.9675 20.6828 21.6966 20.6804C21.4257 20.6781 21.1646 20.7822 20.9697 20.9704L19.6336 22.3066L18.2975 20.9704C18.1026 20.7822 17.8416 20.6781 17.5706 20.6804C17.2997 20.6828 17.0405 20.7914 16.8489 20.983C16.6574 21.1746 16.5487 21.4338 16.5463 21.7047C16.544 21.9757 16.6481 22.2367 16.8364 22.4316L18.6003 24.1955V26.8678H15.5002ZM19.6336 35.1345C18.9927 35.1338 18.3676 34.9347 17.8443 34.5647C17.3209 34.1947 16.9248 33.6718 16.7103 33.0678H22.557C22.3425 33.6718 21.9464 34.1947 21.423 34.5647C20.8996 34.9347 20.2746 35.1338 19.6336 35.1345V35.1345ZM23.767 31.0012H15.5002C15.2262 31.0012 14.9633 30.8923 14.7695 30.6985C14.5758 30.5047 14.4669 30.2419 14.4669 29.9678C14.4669 29.6937 14.5758 29.4309 14.7695 29.2371C14.9633 29.0433 15.2262 28.9345 15.5002 28.9345H23.767C24.0411 28.9345 24.3039 29.0433 24.4977 29.2371C24.6915 29.4309 24.8004 29.6937 24.8004 29.9678C24.8004 30.2419 24.6915 30.5047 24.4977 30.6985C24.3039 30.8923 24.0411 31.0012 23.767 31.0012Z" fill="#F6921E"/>
<path d="M61.5539 20.8507L50.6345 13.3196V1.03417C50.6345 0.760108 50.5256 0.497272 50.3318 0.303481C50.1381 0.109691 49.8752 0.000821025 49.6012 0.000821025H41.3344C41.0603 0.000821025 40.7975 0.109691 40.6037 0.303481C40.4099 0.497272 40.301 0.760108 40.301 1.03417V6.19264L31.5868 0.183724C31.4148 0.0641125 31.2104 0 31.0009 0C30.7914 0 30.587 0.0641125 30.415 0.183724L0.447928 20.8507C0.310041 20.9456 0.197277 21.0726 0.119335 21.2207C0.0413935 21.3689 0.000608466 21.5337 0.000488281 21.7011V24.8012C0.000488281 25.0752 0.109358 25.3381 0.303149 25.5318C0.496939 25.7256 0.759775 25.8345 1.03384 25.8345H6.20057V31.0012C6.20057 31.2753 6.30944 31.5381 6.50323 31.7319C6.69702 31.9257 6.95986 32.0346 7.23392 32.0346C7.50798 32.0346 7.77082 31.9257 7.96461 31.7319C8.1584 31.5381 8.26727 31.2753 8.26727 31.0012V24.8012C8.26727 24.5271 8.1584 24.2643 7.96461 24.0705C7.77082 23.8767 7.50798 23.7678 7.23392 23.7678H2.06718V22.2436L31.0009 2.28969L40.7485 9.01161C40.9033 9.11822 41.0844 9.18055 41.272 9.19189C41.4597 9.20324 41.6469 9.16317 41.8135 9.07599C41.9801 8.98882 42.1197 8.85785 42.2174 8.69719C42.3151 8.53654 42.367 8.35228 42.3677 8.16426V2.06752H48.5678V13.8621C48.5679 14.0295 48.6087 14.1944 48.6867 14.3425C48.7646 14.4907 48.8774 14.6177 49.0153 14.7126L59.9346 22.2436V23.7678H54.7679C54.4938 23.7678 54.231 23.8767 54.0372 24.0705C53.8434 24.2643 53.7346 24.5271 53.7346 24.8012V39.268H32.0343V7.23425C32.0343 6.96019 31.9254 6.69736 31.7316 6.50357C31.5378 6.30978 31.275 6.20091 31.0009 6.20091C30.7268 6.20091 30.464 6.30978 30.2702 6.50357C30.0764 6.69736 29.9676 6.96019 29.9676 7.23425V39.268H11.3673C11.0932 39.268 10.8304 39.3769 10.6366 39.5707C10.4428 39.7645 10.334 40.0273 10.334 40.3014C10.334 40.5754 10.4428 40.8383 10.6366 41.0321C10.8304 41.2258 11.0932 41.3347 11.3673 41.3347H29.9676V56.8349C29.9676 57.109 30.0764 57.3718 30.2702 57.5656C30.464 57.7594 30.7268 57.8683 31.0009 57.8683C31.275 57.8683 31.5378 57.7594 31.7316 57.5656C31.9254 57.3718 32.0343 57.109 32.0343 56.8349V41.3347H53.7346V46.5015C53.7346 46.7755 53.8434 47.0383 54.0372 47.2321C54.231 47.4259 54.4938 47.5348 54.7679 47.5348C55.042 47.5348 55.3048 47.4259 55.4986 47.2321C55.6924 47.0383 55.8012 46.7755 55.8012 46.5015V25.8345H60.968C61.242 25.8345 61.5049 25.7256 61.6987 25.5318C61.8925 25.3381 62.0013 25.0752 62.0013 24.8012V21.7011C62.0012 21.5337 61.9604 21.3689 61.8825 21.2207C61.8045 21.0726 61.6918 20.9456 61.5539 20.8507Z" fill="#F6921E"/>
<path d="M60.9675 55.8016H55.8008V50.6349C55.8008 50.3608 55.6919 50.098 55.4981 49.9042C55.3043 49.7104 55.0415 49.6015 54.7674 49.6015C54.4933 49.6015 54.2305 49.7104 54.0367 49.9042C53.8429 50.098 53.7341 50.3608 53.7341 50.6349V56.835C53.7341 57.109 53.8429 57.3719 54.0367 57.5657C54.2305 57.7594 54.4933 57.8683 54.7674 57.8683H59.9341V59.935H2.06669V57.8683H7.23343C7.50749 57.8683 7.77033 57.7594 7.96412 57.5657C8.15791 57.3719 8.26678 57.109 8.26678 56.835V35.1347C8.26678 34.8606 8.15791 34.5978 7.96412 34.404C7.77033 34.2102 7.50749 34.1013 7.23343 34.1013C6.95937 34.1013 6.69654 34.2102 6.50274 34.404C6.30895 34.5978 6.20008 34.8606 6.20008 35.1347V55.8016H1.03335C0.759287 55.8016 0.496451 55.9105 0.30266 56.1043C0.10887 56.2981 0 56.5609 0 56.835V60.9684C0 61.2424 0.10887 61.5053 0.30266 61.699C0.496451 61.8928 0.759287 62.0017 1.03335 62.0017H60.9675C61.2416 62.0017 61.5044 61.8928 61.6982 61.699C61.892 61.5053 62.0008 61.2424 62.0008 60.9684V56.835C62.0008 56.5609 61.892 56.2981 61.6982 56.1043C61.5044 55.9105 61.2416 55.8016 60.9675 55.8016Z" fill="#F6921E"/>
</svg>
