<svg width="60" height="60" viewBox="0 0 60 60" fill="none" xmlns="http://www.w3.org/2000/svg">
<g clip-path="url(#clip0_613_2909)">
<path d="M43.9534 16.6325C43.7355 16.4146 43.4332 16.2892 43.125 16.2892C42.8168 16.2892 42.5145 16.4146 42.2965 16.6325C42.0785 16.8505 41.9531 17.1517 41.9531 17.4611C41.9531 17.7693 42.0784 18.0716 42.2965 18.2896C42.5146 18.5075 42.8168 18.6329 43.125 18.6329C43.4332 18.6329 43.7355 18.5075 43.9534 18.2896C44.1714 18.0716 44.2969 17.7693 44.2969 17.4611C44.2969 17.1529 44.1715 16.8505 43.9534 16.6325Z" fill="white"/>
<path d="M17.5781 33.047H8.20312C7.55601 33.047 7.03125 33.5716 7.03125 34.2189V43.5939C7.03125 44.2411 7.55601 44.7657 8.20312 44.7657H17.5781C18.2252 44.7657 18.75 44.2411 18.75 43.5939V34.2189C18.75 33.5716 18.2253 33.047 17.5781 33.047ZM16.4062 42.422H9.375V35.3907H16.4062V42.422Z" fill="white"/>
<path d="M59.2765 24.5816C58.8386 24.4001 58.3344 24.5006 57.9994 24.8355L46.0583 36.7767C46.0581 36.7769 46.0579 36.777 46.0577 36.7773C46.0574 36.7775 46.0573 36.7776 46.0572 36.7779L32.1372 50.6978C32.137 50.6981 32.1369 50.6982 32.1366 50.6984C32.1364 50.6987 32.1363 50.6988 32.1361 50.699L24.8354 57.9997C24.5004 58.3348 24.4001 58.839 24.5813 59.2768C24.7628 59.7147 25.19 60.0002 25.664 60.0002H58.828C59.4751 60.0002 59.9999 59.4755 59.9999 58.8283V25.6643C59.9999 25.1904 59.7144 24.763 59.2765 24.5816ZM57.6562 57.6564H28.4933L32.9653 53.1844L34.0839 54.3031C34.3128 54.532 34.6127 54.6464 34.9126 54.6464C35.2125 54.6464 35.5123 54.532 35.7412 54.3031C36.1988 53.8455 36.1988 53.1035 35.7412 52.6457L34.6225 51.5271L37.6057 48.5439L38.7242 49.6625C38.9531 49.8914 39.253 50.0057 39.5528 50.0057C39.8527 50.0057 40.1526 49.8912 40.3815 49.6625C40.8391 49.2049 40.8391 48.4628 40.3815 48.0052L39.2628 46.8866L42.2459 43.9034L43.3646 45.0221C43.5935 45.251 43.8933 45.3653 44.1932 45.3653C44.4931 45.3653 44.793 45.251 45.0219 45.0221C45.4795 44.5645 45.4795 43.8225 45.0219 43.3647L43.9032 42.2461L46.8862 39.263L48.0049 40.3817C48.2337 40.6106 48.5336 40.725 48.8335 40.725C49.1334 40.725 49.4333 40.6106 49.6621 40.3817C50.1197 39.9241 50.1197 39.1821 49.6621 38.7243L48.5435 37.6057L51.5266 34.6225L52.6451 35.7411C52.874 35.97 53.1739 36.0843 53.4738 36.0843C53.7736 36.0843 54.0735 35.9698 54.3024 35.7411C54.76 35.2835 54.76 34.5415 54.3024 34.0838L53.1837 32.9652L57.6562 28.4934V57.6564Z" fill="white"/>
<path d="M53.4169 38.7272C52.979 38.5457 52.4749 38.6461 52.1398 38.9812L38.981 52.1401C38.6459 52.4753 38.5455 52.9793 38.7269 53.4173C38.9083 53.8552 39.3356 54.1406 39.8096 54.1406H52.9684C53.6156 54.1406 54.1403 53.616 54.1403 52.9688V39.8099C54.1403 39.336 53.8549 38.9086 53.4169 38.7272ZM51.7966 51.7969H42.6389L51.7966 42.6391V51.7969Z" fill="white"/>
<path d="M54.265 17.4917C53.9423 17.1692 53.4621 17.063 53.0333 17.2199L45.0317 20.1502C44.8717 20.2088 44.7265 20.3015 44.6059 20.422L42.356 22.6719L27.6647 7.98043C27.4449 7.76071 27.1469 7.63719 26.8361 7.63719C26.5253 7.63719 26.2272 7.76071 26.0075 7.98043L8.32357 25.6643H4.00135L26.8361 2.82947L39.3668 15.3602C39.8246 15.8178 40.5664 15.8178 41.0242 15.3602C41.4818 14.9026 41.4818 14.1605 41.0242 13.7028L27.6649 0.343456C27.2071 -0.11416 26.4653 -0.11416 26.0075 0.343456L0.343468 26.0075C0.00842986 26.3426 -0.0918824 26.8466 0.0894063 27.2846C0.270812 27.7226 0.698077 28.0081 1.1721 28.0081H2.34397V58.8284C2.34397 59.4756 2.86874 60.0002 3.51585 60.0002H22.147C22.7941 60.0002 23.3189 59.4756 23.3189 58.8284C23.3189 58.1811 22.7941 57.6565 22.147 57.6565H4.68772V28.0081H8.80896C9.11974 28.0081 9.41775 27.8846 9.63759 27.6649L26.8361 10.4663L40.6987 24.329L23.3205 41.7073V31.1722H31.5236C32.1707 31.1722 32.6955 30.6475 32.6955 30.0003C32.6955 29.3531 32.1707 28.8284 31.5236 28.8284H22.1486C21.5015 28.8284 20.9767 29.3531 20.9767 30.0003V43.594C20.9767 43.7308 21.0014 43.8613 21.0444 43.9833L19.9945 45.0332C18.1394 46.8883 18.1394 49.9068 19.9945 51.7618C20.9221 52.6895 22.1403 53.1533 23.3588 53.1532C24.5771 53.1532 25.7957 52.6894 26.7231 51.762L36.6058 41.8793C37.0634 41.4217 37.0634 40.6797 36.6058 40.2221C36.1482 39.7644 35.4064 39.7644 34.9484 40.2221L27.4611 47.7094L24.0471 44.2954L45.458 22.8844L48.872 26.2984L40.6906 34.48C40.233 34.9376 40.233 35.6796 40.6906 36.1373C41.1483 36.5949 41.8901 36.5949 42.348 36.1373L51.3346 27.1506C51.4549 27.0302 51.5477 26.8849 51.6062 26.725L54.5366 18.7233C54.6935 18.2949 54.5876 17.8143 54.265 17.4917ZM25.8039 49.3665L25.0659 50.1046C24.6099 50.5606 24.0038 50.8117 23.3589 50.8117C22.7141 50.8117 22.1078 50.5606 21.652 50.1046C21.1959 49.6486 20.9449 49.0424 20.9449 48.3976C20.9449 47.7529 21.1958 47.1465 21.6519 46.6906L22.3899 45.9525L25.8039 49.3665ZM50.0493 24.1608L47.5956 21.7072L51.4672 20.2893L50.0493 24.1608Z" fill="white"/>
<path d="M39.4556 37.3709C39.2377 37.153 38.9354 37.0276 38.6272 37.0276C38.319 37.0276 38.0166 37.153 37.7987 37.3709C37.5807 37.5901 37.4553 37.8913 37.4553 38.1995C37.4553 38.5088 37.5806 38.81 37.7987 39.0291C38.0166 39.2471 38.3178 39.3713 38.6272 39.3713C38.9354 39.3713 39.2377 39.2471 39.4556 39.0291C39.6736 38.81 39.7991 38.5077 39.7991 38.1995C39.7991 37.8913 39.6737 37.5901 39.4556 37.3709Z" fill="white"/>
<path d="M26.8359 17.6954C24.3805 17.6954 22.3828 19.6931 22.3828 22.1486C22.3828 24.604 24.3805 26.6017 26.8359 26.6017C29.2914 26.6017 31.289 24.604 31.289 22.1486C31.289 19.6931 29.2914 17.6954 26.8359 17.6954ZM26.8359 24.2579C25.6728 24.2579 24.7266 23.3118 24.7266 22.1486C24.7266 20.9855 25.6728 20.0392 26.8359 20.0392C27.999 20.0392 28.9453 20.9855 28.9453 22.1486C28.9453 23.3116 27.999 24.2579 26.8359 24.2579Z" fill="white"/>
</g>
<defs>
<clipPath id="clip0_613_2909">
<rect width="60" height="60" fill="white"/>
</clipPath>
</defs>
</svg>
