<svg width="62" height="62" viewBox="0 0 62 62" fill="none" xmlns="http://www.w3.org/2000/svg">
<g clip-path="url(#clip0_613_2888)">
<path d="M36.1667 51.6842C35.596 51.6842 35.1333 52.1469 35.1333 52.7176V53.7333H2.06667V8.26667H35.1333V9.21733C35.1333 9.78799 35.596 10.2507 36.1667 10.2507C36.7373 10.2507 37.2 9.78799 37.2 9.21733V5.16667C37.1966 2.31467 34.8853 0.00335833 32.0333 0H5.16667C2.31467 0.00335833 0.00335833 2.31467 0 5.16667V56.8333C0.00335833 59.6853 2.31467 61.9966 5.16667 62H32.0333C34.8853 61.9966 37.1966 59.6853 37.2 56.8333V52.7176C37.2 52.1469 36.7373 51.6842 36.1667 51.6842ZM5.16667 2.06667H32.0333C33.7454 2.06667 35.1333 3.45456 35.1333 5.16667V6.2H2.06667V5.16667C2.06667 3.45456 3.45456 2.06667 5.16667 2.06667ZM32.0333 59.9333H5.16667C3.45456 59.9333 2.06667 58.5454 2.06667 56.8333V55.8H35.1333V56.8333C35.1333 58.5454 33.7454 59.9333 32.0333 59.9333Z" fill="white"/>
<path d="M19.6334 5.16664H21.7001C22.2708 5.16664 22.7334 4.70397 22.7334 4.13331C22.7334 3.56265 22.2708 3.09998 21.7001 3.09998H19.6334C19.0628 3.09998 18.6001 3.56265 18.6001 4.13331C18.6001 4.70397 19.0628 5.16664 19.6334 5.16664Z" fill="white"/>
<path d="M20.6667 56.8334H16.5333C15.9627 56.8334 15.5 57.296 15.5 57.8667C15.5 58.4374 15.9627 58.9 16.5333 58.9H20.6667C21.2373 58.9 21.7 58.4374 21.7 57.8667C21.7 57.296 21.2373 56.8334 20.6667 56.8334Z" fill="white"/>
<path d="M15.4999 5.16664H16.5332C17.1039 5.16664 17.5666 4.70397 17.5666 4.13331C17.5666 3.56265 17.1039 3.09998 16.5332 3.09998H15.4999C14.9292 3.09998 14.4666 3.56265 14.4666 4.13331C14.4666 4.70397 14.9292 5.16664 15.4999 5.16664Z" fill="white"/>
<path d="M6.19997 15.4999V12.3999H9.29997V10.3333H4.1333V15.4999H6.19997Z" fill="white"/>
<path d="M4.1333 46.5V51.6667H9.29997V49.6H6.19997V46.5H4.1333Z" fill="white"/>
<path d="M60.9666 24.8002H40.3C39.7293 24.8002 39.2666 25.2628 39.2666 25.8335V31.0002H22.7333C22.7312 30.3045 22.6508 29.6112 22.4936 28.9335H31C31.5706 28.9335 32.0333 28.4708 32.0333 27.9002V14.4668H41.3943C41.9649 19.5712 46.5656 23.2465 51.67 22.6759C56.7744 22.1052 60.4497 17.5046 59.879 12.4002C59.3084 7.29575 54.7077 3.62044 49.6033 4.1911C45.2853 4.67379 41.8771 8.08211 41.3943 12.4002H31C30.4293 12.4002 29.9666 12.8628 29.9666 13.4335V26.8668H21.7516C19.4718 22.2611 13.8899 20.3756 9.2842 22.6555C4.6785 24.9354 2.79293 30.5172 5.07285 35.1229C7.35277 39.7286 12.9346 41.6142 17.5403 39.3342C18.6251 38.7973 19.5948 38.0537 20.3949 37.1454C20.4824 37.1761 20.5739 37.1946 20.6666 37.2002H29.9666V48.5668C29.9666 49.1375 30.4293 49.6002 31 49.6002H39.2666V54.7668C39.2666 55.3375 39.7293 55.8002 40.3 55.8002H60.9666C61.5373 55.8002 62 55.3375 62 54.7668V42.3668C62 42.342 61.9876 42.3214 61.9865 42.2976C61.9797 42.2275 61.9659 42.1582 61.9452 42.0909C61.9292 42.0235 61.9059 41.9581 61.876 41.8956C61.8696 41.873 61.8616 41.8509 61.8522 41.8295C61.8273 41.7985 61.8003 41.7692 61.7716 41.7417C61.73 41.6846 61.6826 41.6319 61.63 41.5846C61.5794 41.5449 61.5251 41.5103 61.4678 41.4813C61.4119 41.4483 61.3531 41.4207 61.2921 41.3986C61.2248 41.3777 61.1556 41.3638 61.0855 41.3573C61.0464 41.3467 61.0068 41.3387 60.9666 41.3335H40.3C40.2602 41.3388 40.2209 41.3468 40.1822 41.3573C40.1119 41.3636 40.0425 41.3778 39.9755 41.3996C39.9144 41.4203 39.8559 41.4477 39.8009 41.4813C39.7427 41.512 39.688 41.5487 39.6376 41.5908C39.5849 41.6372 39.5374 41.6891 39.496 41.7458C39.4675 41.7739 39.4406 41.8035 39.4154 41.8347C39.4063 41.8562 39.3984 41.8783 39.3917 41.9008C39.3617 41.9633 39.3384 42.0287 39.3224 42.0961C39.3018 42.1634 39.2879 42.2326 39.2811 42.3028C39.2811 42.3265 39.2677 42.3472 39.2677 42.372V47.5387H32.0333V36.1668C32.0333 35.5962 31.5706 35.1335 31 35.1335H21.7516C22.0805 34.4767 22.3296 33.7828 22.4936 33.0668H39.2666V38.2335C39.2666 38.8041 39.7293 39.2668 40.3 39.2668H60.9666C61.5373 39.2668 62 38.8041 62 38.2335V25.8335C62 25.2628 61.5373 24.8002 60.9666 24.8002ZM50.6333 6.20016C54.6282 6.20016 57.8666 9.43862 57.8666 13.4335C57.8666 17.4284 54.6282 20.6668 50.6333 20.6668C46.6384 20.6668 43.4 17.4284 43.4 13.4335C43.4051 9.44082 46.6406 6.20532 50.6333 6.20016ZM41.3333 53.7335V44.1917L50.1011 49.4524C50.4286 49.6491 50.838 49.6491 51.1655 49.4524L59.9333 44.1917V53.7335H41.3333ZM44.0303 43.4002H57.2363L50.6333 47.362L44.0303 43.4002ZM13.4333 38.2335C9.43843 38.2335 6.19996 34.995 6.19996 31.0002C6.19996 27.0053 9.43843 23.7668 13.4333 23.7668C17.4282 23.7668 20.6666 27.0053 20.6666 31.0002C20.6615 34.9928 17.426 38.2283 13.4333 38.2335ZM59.9333 26.8668V28.9335H41.3333V26.8668H59.9333ZM41.3333 37.2002V31.0002H59.9333V37.2002H41.3333Z" fill="white"/>
<path d="M50.6332 16.5333C50.0625 16.5333 49.5999 16.0706 49.5999 15.4999C49.5999 14.9293 49.1372 14.4666 48.5665 14.4666C47.9959 14.4666 47.5332 14.9293 47.5332 15.4999C47.5386 16.8089 48.3657 17.9735 49.5999 18.4098V19.6333H51.6665V18.4098C53.2776 17.8424 54.1237 16.0763 53.5561 14.4652C53.1195 13.2257 51.9473 12.3975 50.6332 12.3999C50.0625 12.3999 49.5999 11.9373 49.5999 11.3666C49.5999 10.796 50.0625 10.3333 50.6332 10.3333C51.2039 10.3333 51.6665 10.796 51.6665 11.3666C51.6665 11.9373 52.1292 12.3999 52.6999 12.3999C53.2705 12.3999 53.7332 11.9373 53.7332 11.3666C53.7278 10.0576 52.9007 8.89307 51.6665 8.45674V7.23328H49.5999V8.45674C47.9888 9.02417 47.1427 10.7903 47.7103 12.4014C48.1469 13.6408 49.3191 14.4692 50.6332 14.4666C51.2039 14.4666 51.6665 14.9293 51.6665 15.4999C51.6665 16.0706 51.2039 16.5333 50.6332 16.5333Z" fill="white"/>
</g>
<defs>
<clipPath id="clip0_613_2888">
<rect width="62" height="62" fill="white"/>
</clipPath>
</defs>
</svg>
