<svg width="61" height="61" viewBox="0 0 61 61" fill="none" xmlns="http://www.w3.org/2000/svg">
<path d="M44.5625 13.5625C44.0287 13.5625 43.5938 13.1275 43.5938 12.5938H41.6562C41.6562 14.1961 42.9602 15.5 44.5625 15.5V17.4375H46.5V15.5H49.4062V12.5938C49.4062 10.9914 48.1023 9.6875 46.5 9.6875H44.5625C44.0287 9.6875 43.5938 9.25253 43.5938 8.71875V7.75H46.5C47.0338 7.75 47.4688 8.18497 47.4688 8.71875H49.4062C49.4062 7.11644 48.1023 5.8125 46.5 5.8125V3.875H44.5625V5.8125H41.6562V8.71875C41.6562 10.3211 42.9602 11.625 44.5625 11.625H46.5C47.0338 11.625 47.4688 12.06 47.4688 12.5938V13.5625H44.5625Z" fill="white"/>
<path d="M56.1875 27.125V23.25H34.875V27.125H31V60.0625H60.0625V27.125H56.1875ZM36.8125 25.1875H54.25V27.125H36.8125V25.1875ZM50.375 48.4375V58.125H40.6875V48.4375H50.375ZM58.125 58.125H52.3125V48.4375H54.25V46.5H36.8125V48.4375H38.75V58.125H32.9375V29.0625H58.125V58.125Z" fill="white"/>
<path d="M44.5625 31H34.875V36.8125H44.5625V31ZM42.625 34.875H36.8125V32.9375H42.625V34.875Z" fill="white"/>
<path d="M56.1875 31H46.5V36.8125H56.1875V31ZM54.25 34.875H48.4375V32.9375H54.25V34.875Z" fill="white"/>
<path d="M44.5625 38.75H34.875V44.5625H44.5625V38.75ZM42.625 42.625H36.8125V40.6875H42.625V42.625Z" fill="white"/>
<path d="M56.1875 38.75H46.5V44.5625H56.1875V38.75ZM54.25 42.625H48.4375V40.6875H54.25V42.625Z" fill="white"/>
<path d="M25.1875 34.875H3.875V38.75H0V60.0625H29.0625V38.75H25.1875V34.875ZM5.8125 36.8125H23.25V38.75H5.8125V36.8125ZM19.375 52.3125V58.125H9.6875V52.3125H19.375ZM27.125 58.125H21.3125V52.3125H23.25V50.375H5.8125V52.3125H7.75V58.125H1.9375V40.6875H27.125V58.125Z" fill="white"/>
<path d="M13.5625 42.625H3.875V48.4375H13.5625V42.625ZM11.625 46.5H5.8125V44.5625H11.625V46.5Z" fill="white"/>
<path d="M25.1875 42.625H15.5V48.4375H25.1875V42.625ZM23.25 46.5H17.4375V44.5625H23.25V46.5Z" fill="white"/>
<path d="M22.2811 19.7761L28.0936 25.5886L36.8579 16.8243C38.7915 19.5358 41.9545 21.3125 45.5311 21.3125C51.4066 21.3125 56.1873 16.5317 56.1873 10.6562C56.1873 4.78078 51.4066 0 45.5311 0C39.6556 0 34.8748 4.78078 34.8748 10.6562C34.8748 12.2392 35.2313 13.7378 35.8533 15.0893L28.0936 22.8489L22.2811 17.0364L7.06494 32.2526L8.43475 33.6224L22.2811 19.7761ZM45.5311 1.9375C50.338 1.9375 54.2498 5.84931 54.2498 10.6562C54.2498 15.4632 50.338 19.375 45.5311 19.375C40.7242 19.375 36.8123 15.4632 36.8123 10.6562C36.8123 5.84931 40.7242 1.9375 45.5311 1.9375Z" fill="white"/>
</svg>
