<svg width="55" height="62" viewBox="0 0 55 62" fill="none" xmlns="http://www.w3.org/2000/svg">
<path d="M28.0313 33.8369C27.9166 33.8121 27.7989 33.8076 27.6827 33.825C26.5182 33.6894 25.6398 32.7042 25.6378 31.5323C25.6378 30.9707 25.1825 30.5154 24.6208 30.5154C24.0592 30.5154 23.6039 30.9707 23.6039 31.5323C23.6068 33.4893 24.9158 35.2035 26.8028 35.7214V36.7384C26.8028 37.3 27.2581 37.7554 27.8198 37.7554C28.3814 37.7554 28.8367 37.3 28.8367 36.7384V35.783C31.0147 35.3271 32.495 33.2986 32.2661 31.0854C32.0366 28.8722 30.172 27.1903 27.9469 27.1898C26.6717 27.1898 25.6378 26.156 25.6378 24.8808C25.6378 23.6056 26.6717 22.5717 27.9469 22.5717C29.2221 22.5717 30.2559 23.6056 30.2559 24.8808C30.2559 25.4424 30.7113 25.8977 31.2729 25.8977C31.8345 25.8977 32.2899 25.4424 32.2899 24.8808C32.2869 22.8259 30.8474 21.0537 28.8367 20.6296V19.704C28.8367 19.1424 28.3814 18.687 27.8198 18.687C27.2581 18.687 26.8028 19.1424 26.8028 19.704V20.6917C24.7043 21.2647 23.3536 23.3022 23.6426 25.4583C23.9316 27.6144 25.7714 29.2238 27.9469 29.2233C29.2052 29.2233 30.2316 30.2308 30.2544 31.4886C30.2778 32.7465 29.2886 33.7912 28.0313 33.8369V33.8369Z" fill="white"/>
<path d="M13.1997 28.285C13.1997 36.4298 19.8021 43.0322 27.9469 43.0322C36.0917 43.0322 42.6941 36.4298 42.6941 28.285C42.6941 20.1403 36.0917 13.5378 27.9469 13.5378C19.8061 13.5468 13.2091 20.1442 13.1997 28.285ZM27.9469 15.5718C34.9684 15.5718 40.6601 21.2635 40.6601 28.285C40.6601 35.3065 34.9684 40.9982 27.9469 40.9982C20.9254 40.9982 15.2337 35.3065 15.2337 28.285C15.2416 21.267 20.9288 15.5797 27.9469 15.5718Z" fill="white"/>
<path d="M47.7075 45.5392L39.741 49.3032C38.6411 47.2574 36.5312 45.9554 34.2092 45.8898L26.855 45.6877C25.6905 45.6544 24.5479 45.3595 23.5126 44.8247L22.7642 44.4368C18.9327 42.4396 14.3657 42.4446 10.5381 44.4497L10.5848 42.7544C10.6002 42.1928 10.1578 41.7251 9.59614 41.7097L1.53182 41.4877C0.970195 41.4723 0.50292 41.9147 0.487527 42.4764L0.000389802 60.1732C-0.0150038 60.7348 0.427441 61.2026 0.989064 61.218L9.05339 61.4399H9.0812C9.63239 61.4399 10.0833 61.0015 10.0982 60.4508L10.1215 59.6041L12.2166 58.4824C13.0389 58.0399 14.0002 57.9346 14.8985 58.1889L27.4092 61.7001C27.431 61.7066 27.4529 61.7116 27.4752 61.7165C28.3795 61.9057 29.3011 62.0006 30.2247 62.0001C32.1812 62.0011 34.1149 61.5795 35.8931 60.7631C35.9368 60.7433 35.979 60.7199 36.0192 60.6936L54.1585 48.9606C54.6104 48.6681 54.7564 48.0747 54.4917 47.606C53.145 45.2165 50.1581 44.3062 47.7075 45.5392V45.5392ZM2.06166 59.2128L2.49268 43.549L8.52355 43.7148L8.09252 59.3792L2.06166 59.2128ZM34.9769 58.9467C32.7677 59.9438 30.3002 60.2189 27.9256 59.7337L15.4487 56.2314C14.0444 55.8346 12.5413 55.999 11.2567 56.6897L10.1861 57.2633L10.4726 46.8487C13.8652 44.5923 18.2161 44.3604 21.8292 46.2429L22.5775 46.6307C23.8855 47.306 25.328 47.6785 26.7994 47.7212L34.1541 47.9233C36.2198 47.9829 37.9742 49.4537 38.3933 51.4777L27.4385 51.1753C26.8768 51.1599 26.4096 51.6029 26.3937 52.164C26.3783 52.7256 26.8212 53.1934 27.3823 53.2088L39.4719 53.5415H39.5002C40.0509 53.541 40.5013 53.1025 40.5162 52.5523C40.5286 52.1104 40.4958 51.6679 40.4178 51.2329L48.5889 47.3721C48.5969 47.3686 48.6048 47.3646 48.6128 47.3606C49.7718 46.7742 51.1731 46.9703 52.1265 47.8528L34.9769 58.9467Z" fill="white"/>
<path d="M28.9639 10.6783V1.01698C28.9639 0.455356 28.5085 0 27.9469 0C27.3853 0 26.9299 0.455356 26.9299 1.01698V10.6783C26.9299 11.2399 27.3853 11.6953 27.9469 11.6953C28.5085 11.6953 28.9639 11.2399 28.9639 10.6783Z" fill="white"/>
<path d="M36.5911 10.6783V6.10194C36.5911 5.54032 36.1357 5.08496 35.5741 5.08496C35.0125 5.08496 34.5571 5.54032 34.5571 6.10194V10.6783C34.5571 11.24 35.0125 11.6953 35.5741 11.6953C36.1357 11.6953 36.5911 11.24 36.5911 10.6783Z" fill="white"/>
<path d="M21.3365 10.6783V6.10194C21.3365 5.54032 20.8811 5.08496 20.3195 5.08496C19.7578 5.08496 19.3025 5.54032 19.3025 6.10194V10.6783C19.3025 11.24 19.7578 11.6953 20.3195 11.6953C20.8811 11.6953 21.3365 11.24 21.3365 10.6783Z" fill="white"/>
</svg>
